<svg width="35" height="31" viewBox="0 0 35 31" fill="none" xmlns="http://www.w3.org/2000/svg">
<path d="M25.6532 27.0537H29.0242V13.9785H18.9113V27.0537H22.2823V17.2473H25.6532V27.0537ZM2.05646 27.0537V2.53761C2.05646 2.10413 2.23403 1.68842 2.55012 1.38191C2.86621 1.07539 3.29492 0.903198 3.74194 0.903198H27.3387C27.7857 0.903198 28.2144 1.07539 28.5305 1.38191C28.8466 1.68842 29.0242 2.10413 29.0242 2.53761V10.7097H32.3952V27.0537H34.0806V30.3226H0.370972V27.0537H2.05646ZM8.79839 13.9785V17.2473H12.1694V13.9785H8.79839ZM8.79839 20.5161V23.7849H12.1694V20.5161H8.79839ZM8.79839 7.44083V10.7097H12.1694V7.44083H8.79839Z" fill="#FFF5F6"/>
</svg>
