<svg width="21" height="17" viewBox="0 0 21 17" fill="none" xmlns="http://www.w3.org/2000/svg">
<path d="M9.47794 7.63199L4.96794 0.559992L6.89894 0.0419922L13.8499 6.46199L19.1119 5.05199C19.4962 4.94909 19.9057 5.00306 20.2502 5.20204C20.5947 5.40101 20.846 5.72869 20.9489 6.11299C21.0518 6.49729 20.9979 6.90673 20.7989 7.25123C20.5999 7.59574 20.2722 7.84709 19.8879 7.94999L4.91594 11.96L4.13994 9.06199L4.38094 8.99699L6.84794 11.442L4.22194 12.146C4.00661 12.2037 3.77815 12.1879 3.57288 12.1009C3.3676 12.0139 3.19727 11.8608 3.08894 11.666L0.465942 6.93999L1.91494 6.55199L4.38094 8.99699L9.47794 7.63099V7.63199ZM2.99994 15H18.9999V17H2.99994V15Z" fill="#181A25"/>
</svg>
