<svg width="73" height="59" viewBox="0 0 73 59" fill="none" xmlns="http://www.w3.org/2000/svg">
<path d="M33.9263 30.5512C33.4151 31.0583 33.0664 31.7061 32.9248 32.412C32.7832 33.118 32.855 33.8501 33.1311 34.5151C33.4072 35.1801 33.8751 35.7478 34.4751 36.1458C35.0751 36.5438 35.78 36.7542 36.5001 36.75H37.1888C37.4289 36.7164 37.6617 36.6429 37.8776 36.5325C38.1003 36.4601 38.3088 36.3497 38.4938 36.2062L39.0376 35.7712C39.3773 35.4342 39.647 35.0333 39.831 34.5916C40.0151 34.1498 40.1098 33.676 40.1098 33.1975C40.1098 32.7189 40.0151 32.2451 39.831 31.8034C39.647 31.3617 39.3773 30.9607 39.0376 30.6237C38.368 29.9389 37.4546 29.5468 36.4969 29.5332C35.5392 29.5196 34.615 29.8856 33.9263 30.5512ZM36.5001 40.375C35.5387 40.375 34.6166 40.7569 33.9368 41.4367C33.257 42.1165 32.8751 43.0386 32.8751 44V54.875C32.8751 55.8364 33.257 56.7584 33.9368 57.4383C34.6166 58.1181 35.5387 58.5 36.5001 58.5C37.4615 58.5 38.3835 58.1181 39.0633 57.4383C39.7431 56.7584 40.1251 55.8364 40.1251 54.875V44C40.1251 43.0386 39.7431 42.1165 39.0633 41.4367C38.3835 40.7569 37.4615 40.375 36.5001 40.375ZM59.7726 15.7975C57.5577 10.708 53.7351 6.48514 48.8906 3.776C44.0461 1.06685 38.4469 0.0208773 32.9511 0.798357C27.4552 1.57584 22.3659 4.13388 18.463 8.0805C14.5601 12.0271 12.0588 17.1446 11.3426 22.6487C7.88643 23.4764 4.85461 25.5445 2.82286 28.4603C0.791105 31.3761 -0.0990852 34.9365 0.321341 38.4654C0.741767 41.9943 2.44353 45.2459 5.10345 47.6027C7.76338 49.9596 11.1962 51.2575 14.7501 51.25H22.0001C22.9615 51.25 23.8835 50.8681 24.5633 50.1883C25.2431 49.5084 25.6251 48.5864 25.6251 47.625C25.6251 46.6636 25.2431 45.7415 24.5633 45.0617C23.8835 44.3819 22.9615 44 22.0001 44H14.7501C12.8272 44 10.9832 43.2361 9.62354 41.8765C8.2639 40.5169 7.50006 38.6728 7.50006 36.75C7.50006 34.8272 8.2639 32.9831 9.62354 31.6235C10.9832 30.2638 12.8272 29.5 14.7501 29.5C15.7115 29.5 16.6335 29.1181 17.3133 28.4382C17.9931 27.7584 18.3751 26.8364 18.3751 25.875C18.3843 21.5876 19.9131 17.4423 22.6898 14.1756C25.4665 10.9089 29.3113 8.73218 33.5412 8.03228C37.771 7.33237 42.112 8.15456 45.793 10.3528C49.474 12.551 52.2565 15.9829 53.6463 20.0387C53.8535 20.6617 54.226 21.2166 54.724 21.6444C55.222 22.0721 55.8268 22.3566 56.4738 22.4675C58.9902 22.9015 61.2735 24.2072 62.9238 26.1558C64.5742 28.1044 65.4862 30.5715 65.5001 33.125C65.5001 36.0092 64.3543 38.7753 62.3149 40.8148C60.2754 42.8542 57.5093 44 54.6251 44H51.0001C50.0387 44 49.1166 44.3819 48.4368 45.0617C47.757 45.7415 47.3751 46.6636 47.3751 47.625C47.3751 48.5864 47.757 49.5084 48.4368 50.1883C49.1166 50.8681 50.0387 51.25 51.0001 51.25H54.6251C58.9519 51.2101 63.1217 49.6235 66.3808 46.7771C69.6398 43.9307 71.773 40.0122 72.3947 35.7301C73.0165 31.448 72.0857 27.0847 69.7708 23.4289C67.4558 19.7732 63.9094 17.0663 59.7726 15.7975Z" fill="#E0E2EB"/>
</svg>
