<svg width="14" height="17" viewBox="0 0 14 17" fill="none" xmlns="http://www.w3.org/2000/svg">
<path d="M1.40001 0H12.6C12.8122 0 13.0157 0.0842854 13.1657 0.234315C13.3157 0.384344 13.4 0.587827 13.4 0.8V16.1144C13.4001 16.1859 13.381 16.2562 13.3447 16.3178C13.3084 16.3794 13.2563 16.4302 13.1937 16.4649C13.1311 16.4995 13.0604 16.5167 12.9889 16.5147C12.9174 16.5128 12.8478 16.4917 12.7872 16.4536L7.00001 12.824L1.21281 16.4528C1.1523 16.4908 1.08272 16.5119 1.01129 16.5139C0.939859 16.516 0.869195 16.4988 0.806642 16.4643C0.744089 16.4297 0.691932 16.379 0.655592 16.3175C0.619253 16.256 0.600059 16.1859 0.600006 16.1144V0.8C0.600006 0.587827 0.684292 0.384344 0.834321 0.234315C0.98435 0.0842854 1.18783 0 1.40001 0ZM11.8 1.6H2.20001V13.9456L7.00001 10.9368L11.8 13.9456V1.6Z" fill="#FCFCFD"/>
</svg>
