<svg width="28" height="27" viewBox="0 0 28 27" fill="none" xmlns="http://www.w3.org/2000/svg">
<path d="M20.6667 3.00001H26C26.3536 3.00001 26.6928 3.14049 26.9428 3.39053C27.1929 3.64058 27.3333 3.97972 27.3333 4.33334V25.6667C27.3333 26.0203 27.1929 26.3594 26.9428 26.6095C26.6928 26.8595 26.3536 27 26 27H1.99999C1.64637 27 1.30723 26.8595 1.05718 26.6095C0.807132 26.3594 0.666656 26.0203 0.666656 25.6667V4.33334C0.666656 3.97972 0.807132 3.64058 1.05718 3.39053C1.30723 3.14049 1.64637 3.00001 1.99999 3.00001H7.33332V0.333344H9.99999V3.00001H18V0.333344H20.6667V3.00001ZM18 5.66668H9.99999V8.33334H7.33332V5.66668H3.33332V11H24.6667V5.66668H20.6667V8.33334H18V5.66668ZM24.6667 13.6667H3.33332V24.3333H24.6667V13.6667Z" fill="#181A25"/>
</svg>
