<svg width="18" height="19" viewBox="0 0 18 19" fill="none" xmlns="http://www.w3.org/2000/svg">
<path d="M18 18C18 18.2652 17.8946 18.5196 17.7071 18.7071C17.5196 18.8947 17.2652 19 17 19H1C0.734784 19 0.48043 18.8947 0.292893 18.7071C0.105357 18.5196 2.4071e-07 18.2652 2.4071e-07 18V7.49003C-0.000105484 7.33764 0.0346172 7.18724 0.101516 7.05033C0.168415 6.91341 0.26572 6.79359 0.386 6.70003L8.386 0.478028C8.56154 0.341473 8.7776 0.267334 9 0.267334C9.2224 0.267334 9.43846 0.341473 9.614 0.478028L17.614 6.70003C17.7343 6.79359 17.8316 6.91341 17.8985 7.05033C17.9654 7.18724 18.0001 7.33764 18 7.49003V18V18ZM8 11V17H10V11H8Z" fill="#181A25"/>
</svg>
