<svg width="36" height="29" viewBox="0 0 36 29" fill="none" xmlns="http://www.w3.org/2000/svg">
<path d="M15.6605 13.0114L8.05896 1.45289L11.3136 0.606262L23.0294 11.0992L31.8984 8.79465C32.5462 8.62646 33.2363 8.71468 33.8169 9.03988C34.3976 9.36509 34.8212 9.90066 34.9947 10.5288C35.1681 11.1569 35.0772 11.826 34.7418 12.3891C34.4064 12.9522 33.8541 13.363 33.2064 13.5312L7.97132 20.0851L6.66338 15.3486L7.06959 15.2424L11.2277 19.2385L6.80159 20.3891C6.43865 20.4835 6.0536 20.4576 5.7076 20.3154C5.36161 20.1733 5.07452 19.9231 4.89194 19.6046L0.470917 11.8804L2.91318 11.2463L7.06959 15.2424L15.6605 13.0098V13.0114ZM4.74193 25.0537H31.7097V28.3226H4.74193V25.0537Z" fill="#FFF5F6"/>
</svg>
