<svg width="28" height="27" viewBox="0 0 28 27" fill="none" xmlns="http://www.w3.org/2000/svg">
<path d="M20.6667 3.00001H26C26.3536 3.00001 26.6928 3.14049 26.9428 3.39053C27.1929 3.64058 27.3334 3.97972 27.3334 4.33334V25.6667C27.3334 26.0203 27.1929 26.3594 26.9428 26.6095C26.6928 26.8595 26.3536 27 26 27H2.00002C1.6464 27 1.30726 26.8595 1.05721 26.6095C0.807163 26.3594 0.666687 26.0203 0.666687 25.6667V4.33334C0.666687 3.97972 0.807163 3.64058 1.05721 3.39053C1.30726 3.14049 1.6464 3.00001 2.00002 3.00001H7.33335V0.333344H10V3.00001H18V0.333344H20.6667V3.00001ZM18 5.66668H10V8.33334H7.33335V5.66668H3.33335V11H24.6667V5.66668H20.6667V8.33334H18V5.66668ZM24.6667 13.6667H3.33335V24.3333H24.6667V13.6667Z" fill="#181A25"/>
</svg>
